<svg id="Capa_1" enable-background="new 0 0 512.038 512.038" height="512" viewBox="0 0 512.038 512.038" width="512" xmlns="http://www.w3.org/2000/svg"><g><path d="m140.237 153.62h231.563c4.142 0 7.5-3.358 7.5-7.5s-3.358-7.5-7.5-7.5h-231.563c-4.142 0-7.5 3.358-7.5 7.5s3.358 7.5 7.5 7.5z"/><path d="m371.8 211.039c4.142 0 7.5-3.358 7.5-7.5s-3.358-7.5-7.5-7.5h-231.563c-4.142 0-7.5 3.358-7.5 7.5s3.358 7.5 7.5 7.5z"/><path d="m188.753 352.627c-4.052-.846-8.027 1.755-8.873 5.811l-18.534 88.858c-.846 4.055 1.755 8.027 5.811 8.873.517.108 1.031.16 1.539.16 3.477 0 6.596-2.432 7.334-5.97l18.534-88.858c.846-4.056-1.756-8.028-5.811-8.874z"/><path d="m332.158 358.438c-.845-4.055-4.818-6.659-8.873-5.811-4.055.846-6.657 4.818-5.81 8.873l18.534 88.858c.738 3.539 3.857 5.97 7.334 5.97.507 0 1.023-.052 1.539-.16 4.055-.846 6.656-4.818 5.811-8.873z"/><path d="m133.883 306.892c-8.017 8.666-15.138 18.175-21.171 28.4l-69.108 117.115v-96.281c0-4.142-3.358-7.5-7.5-7.5s-7.5 3.358-7.5 7.5v123.749c0 17.735 14.428 32.163 32.163 32.163h390.504c17.735 0 32.163-14.428 32.163-32.163v-255.87c0-8.624-3.515-17.034-9.643-23.1-.013-.013-.024-.027-.037-.041-.007-.007-.015-.013-.022-.02-.011-.011-.022-.023-.033-.034l-29.477-28.931v-66.63c0-17.92-14.58-32.5-32.5-32.5h-68.501l-65.388-64.176c-.071-.07-.144-.138-.217-.205-12.312-11.157-30.882-11.157-43.194 0-.074.067-.146.135-.217.205l-65.388 64.176h-68.501c-17.92 0-32.5 14.58-32.5 32.5v66.63l-29.478 28.931c-.012.012-.024.025-.036.038-.006.006-.012.01-.018.016-.011.011-.02.023-.03.033-6.132 6.066-9.65 14.48-9.65 23.107v99.435c0 4.142 3.358 7.5 7.5 7.5s7.5-3.358 7.5-7.5v-99.435c0-2.096.404-4.161 1.13-6.104zm323.901-100.684-13.562 13.538v-26.849zm-389.968 13.538-13.562-13.538 13.562-13.311zm15-114.497c0-9.649 7.851-17.5 17.5-17.5h154.913c4.142 0 7.5-3.358 7.5-7.5s-3.358-7.5-7.5-7.5h-64.999l54.365-53.357c6.537-5.833 16.309-5.833 22.847 0l54.365 53.357h-33.891c-4.142 0-7.5 3.358-7.5 7.5s3.358 7.5 7.5 7.5h123.806c9.649 0 17.5 7.851 17.5 17.5v129.471l-61.738 61.629c-8.847-7.986-18.542-15.047-28.951-20.991-25.089-14.327-53.622-21.899-82.513-21.899s-57.424 7.573-82.513 21.899c-10.409 5.944-20.105 13.004-28.951 20.991l-61.74-61.629zm384.488 112.651c.726 1.943 1.13 4.009 1.13 6.104v228.402l-52.485-88.944c-2.106-3.568-6.705-4.751-10.271-2.648-3.567 2.105-4.753 6.704-2.648 10.271l65.297 110.657c-.932 8.564-8.441 15.296-17.057 15.296h-390.503c-8.615 0-16.125-6.731-17.057-15.296l81.921-138.827c27.1-45.926 77.061-74.456 130.388-74.456s103.289 28.53 130.388 74.456c2.106 3.567 6.704 4.754 10.271 2.648 3.567-2.105 4.753-6.704 2.648-10.271-6.034-10.226-13.154-19.734-21.172-28.4z"/></g></svg>