<?xml version="1.0"?>
<svg xmlns="http://www.w3.org/2000/svg" viewBox="0 0 512 512" width="512" height="512"><g id="Medical_check" data-name="Medical check"><path d="M472,392a88.118,88.118,0,0,0-80-87.633V16a8,8,0,0,0-8-8H48a8,8,0,0,0-8,8V496a8,8,0,0,0,8,8H384a8,8,0,0,0,8-8V479.633A88.118,88.118,0,0,0,472,392ZM56,488V24H376V304.367a88,88,0,0,0,0,175.266V488Zm328-24a72,72,0,1,1,72-72A72.081,72.081,0,0,1,384,464Z"/><path d="M438.021,370.732a8,8,0,0,0-11.289-.753l-58.368,51.072-18.707-18.708a8,8,0,0,0-11.314,11.314l24,24a8,8,0,0,0,10.925.364l64-56A8,8,0,0,0,438.021,370.732Z"/><path d="M208,312H80a8,8,0,0,0,0,16H208a8,8,0,0,0,0-16Z"/><path d="M208,336H80a8,8,0,0,0,0,16H208a8,8,0,0,0,0-16Z"/><path d="M128,360H80a8,8,0,0,0,0,16h48a8,8,0,0,0,0-16Z"/><path d="M160,360h-8a8,8,0,0,0,0,16h8a8,8,0,0,0,0-16Z"/><path d="M80,296H352a8,8,0,0,0,8-8V256a8,8,0,0,0-8-8H80a8,8,0,0,0-8,8v32A8,8,0,0,0,80,296Zm8-32H344v16H88Z"/><path d="M120,136h17.768c4.342,15.645,16.684,32.748,36.862,51.022A298.506,298.506,0,0,0,211.738,215.5a8,8,0,0,0,8.524,0,298.506,298.506,0,0,0,37.108-28.475c18.471-16.728,30.379-32.476,35.592-47.022H320a8,8,0,0,0,0-16H295.992c0-.121.008-.243.008-.364v-9.818a50.549,50.549,0,0,0-50.546-50.545c-11.952,0-21.9,9.13-29.454,16.709-7.553-7.579-17.5-16.709-29.454-16.709A50.55,50.55,0,0,0,136,113.818V120H120a8,8,0,0,0,0,16Zm96,63.179c-18.06-12.115-51.818-38.821-61.4-63.179h10.087l17.656,17.657a8,8,0,0,0,11.314,0L220,127.314l10.343,10.343A8,8,0,0,0,236,140h39.616C264.17,163.205,233.068,187.716,216,199.179Zm-64-85.361a34.547,34.547,0,0,1,34.546-34.545c6.283,0,14.182,8,19.948,13.849,1.38,1.4,2.683,2.718,3.965,3.95a8,8,0,0,0,11.082,0c1.282-1.232,2.585-2.552,3.965-3.95,5.766-5.845,13.665-13.849,19.948-13.849A34.548,34.548,0,0,1,280,113.818v9.818c0,.121-.007.243-.009.364H239.313l-13.656-13.657a8,8,0,0,0-11.314,0L188,136.686l-14.343-14.343A8,8,0,0,0,168,120H152Z"/></g></svg>
